<?xml version="1.0" encoding="utf-8"?>
<!-- Generator: Adobe Illustrator 16.0.0, SVG Export Plug-In . SVG Version: 6.00 Build 0)  -->
<svg version="1.2" baseProfile="tiny" id="Layer_1" xmlns="http://www.w3.org/2000/svg" xmlns:xlink="http://www.w3.org/1999/xlink"
	 x="0px" y="0px" width="2000px" height="575.373px" viewBox="0 0 2000 575.373" xml:space="preserve">
<polygon fill="#0071BC" points="0,405.373 80,405.373 80,285.373 213,285.373 213,218.373 293,218.373 293,350.373 342,350.373 
	342,433.373 477,433.373 477,129.373 589,129.373 589,399.411 625,399.818 625,233.521 669.458,158.167 700,231.473 700,400.596 
	801,401.781 801,112.373 902,112.373 1023.661,40.832 1025,112.065 1025,213.97 1105,212.801 1105,110.881 1275,109.967 
	1275,323.575 1378,321.849 1378,147.021 1506.712,147.333 1507,310.373 1579,310.373 1579,336.373 1669,336.373 1669,96.661 
	1781,164.795 1781,198.565 2000,198.521 2000,575.373 0,575.373 "/>
</svg>
