<?xml version="1.0" encoding="utf-8"?>
<!-- Generator: Adobe Illustrator 16.0.0, SVG Export Plug-In . SVG Version: 6.00 Build 0)  -->
<svg version="1.2" baseProfile="tiny" id="Layer_1" xmlns="http://www.w3.org/2000/svg" xmlns:xlink="http://www.w3.org/1999/xlink"
	 x="0px" y="0px" width="889.831px" height="247.458px" viewBox="0 0 889.831 247.458" xml:space="preserve">
<g>
	<g>
		<ellipse fill="#333333" cx="252.54" cy="142.576" rx="115.574" ry="54.238"/>
		<ellipse fill="#333333" cx="448.729" cy="130.711" rx="130.475" ry="52.542"/>
		<ellipse fill="#333333" cx="645.729" cy="158.678" rx="128.525" ry="38.136"/>
		<ellipse fill="#333333" cx="575.365" cy="109.423" rx="103.772" ry="40.254"/>
		<ellipse fill="#333333" cx="703.173" cy="115.458" rx="50.259" ry="27.119"/>
		<ellipse fill="#333333" cx="323.792" cy="91.296" rx="61.648" ry="20.127"/>
		<ellipse fill="#333333" cx="506.237" cy="75.153" rx="57.508" ry="34.271"/>
	</g>
	<g>
		<ellipse fill="#333333" cx="497.888" cy="162.238" rx="65.024" ry="41.525"/>
		<ellipse fill="#333333" cx="304.822" cy="165.407" rx="57.06" ry="39.831"/>
		<ellipse fill="#333333" cx="401.414" cy="168.907" rx="50.974" ry="36.331"/>
		<ellipse fill="#333333" cx="592.566" cy="183.847" rx="65.481" ry="35.17"/>
		<ellipse fill="#333333" cx="238.108" cy="190.626" rx="48.684" ry="28.391"/>
		<ellipse fill="#333333" cx="674.084" cy="175.958" rx="58.17" ry="36.28"/>
		<ellipse fill="#333333" cx="770.711" cy="157.432" rx="79.627" ry="29.975"/>
		<ellipse fill="#333333" cx="143.496" cy="180.597" rx="79.648" ry="23.166"/>
	</g>
	<g>
		<ellipse fill="#94B3FF" cx="248.54" cy="134.576" rx="115.574" ry="54.238"/>
		<ellipse fill="#94B3FF" cx="444.729" cy="122.711" rx="130.475" ry="52.542"/>
		<ellipse fill="#94B3FF" cx="641.729" cy="150.678" rx="128.525" ry="38.136"/>
		<ellipse fill="#94B3FF" cx="571.365" cy="101.424" rx="103.772" ry="40.254"/>
		<ellipse fill="#94B3FF" cx="699.173" cy="107.458" rx="50.259" ry="27.119"/>
		<ellipse fill="#94B3FF" cx="319.792" cy="83.296" rx="61.648" ry="20.127"/>
		<ellipse fill="#94B3FF" cx="502.237" cy="67.153" rx="57.508" ry="34.271"/>
	</g>
	<g>
		<ellipse fill="#4C7DCC" cx="493.889" cy="154.238" rx="65.025" ry="41.525"/>
		<ellipse fill="#4C7DCC" cx="300.822" cy="157.407" rx="57.06" ry="39.831"/>
		<ellipse fill="#4C7DCC" cx="397.414" cy="160.907" rx="50.973" ry="36.331"/>
		<ellipse fill="#4C7DCC" cx="588.566" cy="175.847" rx="65.481" ry="35.17"/>
		<ellipse fill="#4C7DCC" cx="234.108" cy="182.626" rx="48.684" ry="28.391"/>
		<ellipse fill="#4C7DCC" cx="670.084" cy="167.958" rx="58.17" ry="36.28"/>
		<ellipse fill="#4C7DCC" cx="766.711" cy="149.432" rx="79.627" ry="29.975"/>
		<ellipse fill="#4C7DCC" cx="139.496" cy="172.597" rx="79.648" ry="23.166"/>
	</g>
</g>
</svg>
