<?xml version="1.0" encoding="utf-8"?>
<!-- Generator: Adobe Illustrator 16.0.0, SVG Export Plug-In . SVG Version: 6.00 Build 0)  -->
<svg version="1.2" baseProfile="tiny" id="Layer_1" xmlns="http://www.w3.org/2000/svg" xmlns:xlink="http://www.w3.org/1999/xlink"
	 x="0px" y="0px" width="506.975px" height="500px" viewBox="0 0 506.975 500" xml:space="preserve">
<g>
	<g>
		<circle fill="#EACE00" cx="260.879" cy="255.313" r="64.936"/>
		<circle fill="#EACE00" cx="260.61" cy="255.044" r="57.172"/>
	</g>
	<g>
		<polygon fill="#EACE00" points="229.289,207 261.242,37.77 293.194,207 		"/>
		<polygon fill="#EACE00" points="235.063,207 260.38,52.424 285.698,207 		"/>
	</g>
	<g>
		<polygon fill="#EACE00" points="292.361,306 260.408,475.231 228.456,306 		"/>
		<polygon fill="#EACE00" points="286.587,306 261.269,460.576 235.952,306 		"/>
	</g>
	<g>
		<polygon fill="#EACE00" points="309.861,222.698 479.092,254.651 309.861,286.604 		"/>
		<polygon fill="#EACE00" points="309.861,228.472 464.437,253.79 309.861,279.107 		"/>
	</g>
	<g>
		<polygon fill="#EACE00" points="209.861,287.437 40.631,255.482 209.861,223.53 		"/>
		<polygon fill="#EACE00" points="209.861,281.661 55.286,256.344 209.861,231.026 		"/>
	</g>
	<g>
		<polygon fill="#EACE00" points="207.827,229.635 146.908,142.121 234.422,203.04 		"/>
		<polygon fill="#EACE00" points="210.23,227.232 152.977,148.905 231.303,206.159 		"/>
	</g>
	<g>
		<polygon fill="#EACE00" points="286.026,203.04 373.541,142.121 312.621,229.635 		"/>
		<polygon fill="#EACE00" points="288.429,205.443 366.756,148.189 309.502,226.516 		"/>
	</g>
	<g>
		<polygon fill="#EACE00" points="312.621,278.74 373.54,366.256 286.025,305.336 		"/>
		<polygon fill="#EACE00" points="310.218,281.144 367.472,359.471 289.146,302.216 		"/>
	</g>
	<g>
		<polygon fill="#EACE00" points="236.088,307.834 148.573,368.754 209.493,281.239 		"/>
		<polygon fill="#EACE00" points="233.684,305.431 155.358,362.685 212.612,284.358 		"/>
	</g>
	<circle fill="#EACE00" cx="260.988" cy="254.333" r="32.323"/>
</g>
<g>
	<g>
		<circle fill="#FFED45" cx="256.879" cy="249.313" r="64.936"/>
		<circle fill="#FFFAD2" cx="256.61" cy="249.044" r="57.172"/>
	</g>
	<g>
		<polygon fill="#FFED45" points="225.289,201 257.242,31.77 289.194,201 		"/>
		<polygon fill="#FFFAD2" points="231.063,201 256.38,46.424 281.698,201 		"/>
	</g>
	<g>
		<polygon fill="#FFED45" points="288.361,300 256.408,469.231 224.456,300 		"/>
		<polygon fill="#FFFAD2" points="282.587,300 257.269,454.576 231.952,300 		"/>
	</g>
	<g>
		<polygon fill="#FFED45" points="305.861,216.698 475.092,248.651 305.861,280.604 		"/>
		<polygon fill="#FFFAD2" points="305.861,222.472 460.437,247.79 305.861,273.107 		"/>
	</g>
	<g>
		<polygon fill="#FFED45" points="205.861,281.437 36.631,249.482 205.861,217.53 		"/>
		<polygon fill="#FFFAD2" points="205.861,275.661 51.286,250.344 205.861,225.026 		"/>
	</g>
	<g>
		<polygon fill="#FFED45" points="203.827,223.635 142.908,136.121 230.422,197.04 		"/>
		<polygon fill="#FFFAD2" points="206.23,221.232 148.977,142.905 227.303,200.159 		"/>
	</g>
	<g>
		<polygon fill="#FFED45" points="282.026,197.04 369.541,136.121 308.621,223.635 		"/>
		<polygon fill="#FFFAD2" points="284.429,199.443 362.756,142.189 305.502,220.516 		"/>
	</g>
	<g>
		<polygon fill="#FFED45" points="308.621,272.74 369.54,360.255 282.025,299.336 		"/>
		<polygon fill="#FFFAD2" points="306.218,275.144 363.472,353.471 285.146,296.216 		"/>
	</g>
	<g>
		<polygon fill="#FFED45" points="232.088,301.834 144.573,362.753 205.493,275.239 		"/>
		<polygon fill="#FFFAD2" points="229.684,299.431 151.358,356.685 208.612,278.358 		"/>
	</g>
	<circle fill="#FFFEF8" cx="256.988" cy="248.333" r="32.323"/>
</g>
</svg>
