<?xml version="1.0" encoding="utf-8"?>
<!-- Generator: Adobe Illustrator 16.0.0, SVG Export Plug-In . SVG Version: 6.00 Build 0)  -->
<svg version="1.2" baseProfile="tiny" id="Layer_1" xmlns="http://www.w3.org/2000/svg" xmlns:xlink="http://www.w3.org/1999/xlink"
	 x="0px" y="0px" width="908.475px" height="240.678px" viewBox="0 0 908.475 240.678" xml:space="preserve">
<g>
	<ellipse fill="#333333" cx="227.255" cy="107.61" rx="187.322" ry="27.966"/>
	<ellipse fill="#333333" cx="511.967" cy="143.627" rx="172.034" ry="36.018"/>
	<ellipse fill="#333333" cx="320.606" cy="135.797" rx="141.69" ry="35.593"/>
	<ellipse fill="#333333" cx="742.103" cy="121.915" rx="134.373" ry="21.712"/>
	<ellipse fill="#333333" cx="186.538" cy="136.455" rx="95.757" ry="34.935"/>
	<ellipse fill="#333333" cx="687.465" cy="146.562" rx="99.925" ry="24.828"/>
	<ellipse fill="#333333" cx="384.653" cy="172.018" rx="55.279" ry="36.44"/>
	<ellipse fill="#333333" cx="653.516" cy="172.457" rx="65.976" ry="36.001"/>
	<ellipse fill="#333333" cx="532.457" cy="172.73" rx="62.761" ry="35.728"/>
	<ellipse fill="#333333" cx="287.814" cy="172.652" rx="52.119" ry="29.025"/>
	<ellipse fill="#333333" cx="456.068" cy="177.949" rx="41.491" ry="23.729"/>
	<g>
		<ellipse fill="#333333" cx="532.433" cy="103.102" rx="187.059" ry="19.492"/>
		<ellipse fill="#333333" cx="643.924" cy="84.543" rx="48.706" ry="28.628"/>
		<ellipse fill="#333333" cx="516.237" cy="90.822" rx="53.941" ry="26.382"/>
		<ellipse fill="#333333" cx="427.221" cy="82.322" rx="61.864" ry="17.882"/>
		<ellipse fill="#333333" cx="352.932" cy="86.559" rx="42.15" ry="30.644"/>
		<ellipse fill="#333333" cx="198.865" cy="82.322" rx="75.882" ry="17.882"/>
		<ellipse fill="#94B3FF" cx="223.255" cy="100.61" rx="187.322" ry="27.966"/>
		<ellipse fill="#94B3FF" cx="507.967" cy="136.627" rx="172.034" ry="36.018"/>
		<ellipse fill="#94B3FF" cx="528.433" cy="96.102" rx="187.059" ry="19.492"/>
		<ellipse fill="#94B3FF" cx="316.606" cy="128.797" rx="141.69" ry="35.593"/>
		<ellipse fill="#94B3FF" cx="738.103" cy="114.915" rx="134.373" ry="21.712"/>
		<ellipse fill="#94B3FF" cx="639.924" cy="77.543" rx="48.706" ry="28.628"/>
		<ellipse fill="#94B3FF" cx="512.238" cy="83.822" rx="53.942" ry="26.382"/>
		<ellipse fill="#94B3FF" cx="423.221" cy="75.322" rx="61.865" ry="17.882"/>
		<ellipse fill="#94B3FF" cx="348.932" cy="79.559" rx="42.15" ry="30.644"/>
		<ellipse fill="#94B3FF" cx="194.865" cy="75.322" rx="75.881" ry="17.882"/>
	</g>
	<g>
		<ellipse fill="#4C7DCC" cx="182.538" cy="129.455" rx="95.757" ry="34.935"/>
		<ellipse fill="#4C7DCC" cx="683.465" cy="139.562" rx="99.926" ry="24.828"/>
		<ellipse fill="#4C7DCC" cx="380.653" cy="165.018" rx="55.279" ry="36.44"/>
		<ellipse fill="#4C7DCC" cx="649.516" cy="165.457" rx="65.976" ry="36.001"/>
		<ellipse fill="#4C7DCC" cx="528.457" cy="165.73" rx="62.761" ry="35.728"/>
		<ellipse fill="#4C7DCC" cx="283.814" cy="165.652" rx="52.119" ry="29.025"/>
		<ellipse fill="#4C7DCC" cx="452.069" cy="170.949" rx="41.491" ry="23.729"/>
	</g>
</g>
</svg>
