<?xml version="1.0" encoding="utf-8"?>
<!-- Generator: Adobe Illustrator 16.0.0, SVG Export Plug-In . SVG Version: 6.00 Build 0)  -->
<svg version="1.2" baseProfile="tiny" id="Layer_1" xmlns="http://www.w3.org/2000/svg" xmlns:xlink="http://www.w3.org/1999/xlink"
	 x="0px" y="0px" width="1086.44px" height="249.152px" viewBox="0 0 1086.44 249.152" xml:space="preserve">
<g>
	<g>
		<g>
			<ellipse fill="#333333" cx="211.472" cy="119.136" rx="176.777" ry="28.812"/>
			<ellipse fill="#333333" cx="526.22" cy="140.321" rx="210.17" ry="29.662"/>
			<ellipse fill="#333333" cx="855.108" cy="119.136" rx="199.926" ry="28.812"/>
			<ellipse fill="#333333" cx="522.825" cy="100.321" rx="172.887" ry="28.812"/>
			<ellipse fill="#333333" cx="227.279" cy="149.56" rx="128.178" ry="20.424"/>
			<ellipse fill="#333333" cx="823.982" cy="151.339" rx="144.61" ry="32.203"/>
			<ellipse fill="#333333" cx="599.049" cy="168.712" rx="106.323" ry="28.39"/>
			<ellipse fill="#333333" cx="784.77" cy="95.321" rx="129.587" ry="23.812"/>
			<ellipse fill="#333333" cx="317.905" cy="108.187" rx="106.433" ry="36.678"/>
			<ellipse fill="#333333" cx="393.469" cy="76.678" rx="43.531" ry="23.644"/>
			<ellipse fill="#333333" cx="687.105" cy="69.897" rx="49.284" ry="30.424"/>
			<ellipse fill="#333333" cx="605.955" cy="80.847" rx="51.228" ry="28.812"/>
			<ellipse fill="#333333" cx="504.032" cy="76.897" rx="37.307" ry="25.424"/>
			<ellipse fill="#333333" cx="769.775" cy="70.897" rx="54.208" ry="19.424"/>
		</g>
		<g>
			<ellipse fill="#333333" cx="423.338" cy="168.983" rx="117" ry="26.118"/>
			<ellipse fill="#333333" cx="731.07" cy="184.933" rx="52.698" ry="35.593"/>
			<ellipse fill="#333333" cx="883.051" cy="178.152" rx="60.067" ry="28.813"/>
			<ellipse fill="#333333" cx="528.936" cy="193.203" rx="38.112" ry="29.661"/>
			<ellipse fill="#333333" cx="804.376" cy="176.457" rx="49.732" ry="30.509"/>
			<ellipse fill="#333333" cx="645.626" cy="174.788" rx="45.746" ry="28.076"/>
			<ellipse fill="#333333" cx="577.694" cy="195.924" rx="37.356" ry="26.94"/>
			<ellipse fill="#333333" cx="460.601" cy="195.924" rx="37.263" ry="26.94"/>
			<ellipse fill="#333333" cx="295.475" cy="171.433" rx="49.916" ry="31.432"/>
			<ellipse fill="#333333" cx="208.381" cy="177.263" rx="61.127" ry="29.703"/>
		</g>
	</g>
	<g>
		<ellipse fill="#94B3FF" cx="206.472" cy="112.136" rx="176.777" ry="28.812"/>
		<ellipse fill="#94B3FF" cx="521.22" cy="133.321" rx="210.17" ry="29.662"/>
		<ellipse fill="#94B3FF" cx="850.108" cy="112.136" rx="199.926" ry="28.812"/>
		<ellipse fill="#94B3FF" cx="517.825" cy="93.321" rx="172.887" ry="28.812"/>
		<ellipse fill="#94B3FF" cx="222.279" cy="142.56" rx="128.178" ry="20.424"/>
		<ellipse fill="#94B3FF" cx="818.982" cy="144.339" rx="144.61" ry="32.203"/>
		<ellipse fill="#94B3FF" cx="594.049" cy="161.712" rx="106.323" ry="28.39"/>
		<ellipse fill="#94B3FF" cx="779.77" cy="88.321" rx="129.587" ry="23.812"/>
		<ellipse fill="#94B3FF" cx="312.905" cy="101.187" rx="106.433" ry="36.678"/>
		<ellipse fill="#94B3FF" cx="388.469" cy="69.678" rx="43.531" ry="23.644"/>
		<ellipse fill="#94B3FF" cx="682.106" cy="62.897" rx="49.284" ry="30.424"/>
		<ellipse fill="#94B3FF" cx="600.956" cy="73.847" rx="51.227" ry="28.812"/>
		<ellipse fill="#94B3FF" cx="499.032" cy="69.897" rx="37.307" ry="25.424"/>
		<ellipse fill="#94B3FF" cx="764.775" cy="63.897" rx="54.208" ry="19.424"/>
	</g>
	<g>
		<ellipse fill="#4C7DCC" cx="418.338" cy="161.983" rx="117" ry="26.118"/>
		<ellipse fill="#4C7DCC" cx="726.07" cy="177.933" rx="52.698" ry="35.593"/>
		<ellipse fill="#4C7DCC" cx="878.051" cy="171.152" rx="60.067" ry="28.813"/>
		<ellipse fill="#4C7DCC" cx="523.937" cy="186.203" rx="38.112" ry="29.661"/>
		<ellipse fill="#4C7DCC" cx="799.376" cy="169.457" rx="49.732" ry="30.509"/>
		<ellipse fill="#4C7DCC" cx="640.626" cy="167.788" rx="45.746" ry="28.076"/>
		<ellipse fill="#4C7DCC" cx="572.694" cy="188.924" rx="37.356" ry="26.94"/>
		<ellipse fill="#4C7DCC" cx="455.601" cy="188.924" rx="37.263" ry="26.94"/>
		<ellipse fill="#4C7DCC" cx="290.475" cy="164.433" rx="49.916" ry="31.432"/>
		<ellipse fill="#4C7DCC" cx="203.381" cy="170.263" rx="61.127" ry="29.703"/>
	</g>
</g>
</svg>
