<?xml version="1.0" encoding="utf-8"?>
<!-- Generator: Adobe Illustrator 16.0.0, SVG Export Plug-In . SVG Version: 6.00 Build 0)  -->
<!DOCTYPE svg PUBLIC "-//W3C//DTD SVG 1.1//EN" "http://www.w3.org/Graphics/SVG/1.1/DTD/svg11.dtd">
<svg version="1.1" id="Layer_1" xmlns="http://www.w3.org/2000/svg" xmlns:xlink="http://www.w3.org/1999/xlink" x="0px" y="0px"
	 width="2000px" height="571px" viewBox="0 0 2000 571" enable-background="new 0 0 2000 571" xml:space="preserve">
<g>
	<rect x="1290" y="154.316" fill="#333333" width="161" height="415"/>
	<rect x="1282" y="154.316" fill="#366668" width="161" height="415"/>
	<polygon fill="#294747" points="1282,569.316 1443,569.316 1443,320.083 	"/>
	<rect x="1315" y="190.316" fill="#FFFF00" width="37" height="24"/>
	<rect x="1374" y="190.316" fill="#666666" width="37" height="24"/>
	<rect x="1314" y="231.316" fill="#E6E6E6" width="37" height="25"/>
	<rect x="1373" y="231.316" fill="#E6E6E6" width="37" height="25"/>
	<rect x="1314" y="276.316" fill="#E6E6E6" width="37" height="25"/>
	<rect x="1373" y="276.316" fill="#666666" width="37" height="25"/>
	<rect x="1313" y="320.316" fill="#666666" width="37" height="25"/>
	<rect x="1372" y="320.316" fill="#FFFF00" width="37" height="25"/>
	<rect x="1313" y="365.316" fill="#E6E6E6" width="37" height="24"/>
	<rect x="1372" y="365.316" fill="#E6E6E6" width="37" height="24"/>
	<rect x="1314" y="410.316" fill="#666666" width="37" height="25"/>
	<rect x="1373" y="410.316" fill="#666666" width="37" height="25"/>
	<rect x="1314" y="455.316" fill="#FFFF00" width="37" height="25"/>
	<rect x="1373" y="455.316" fill="#E6E6E6" width="37" height="25"/>
	<rect x="1314" y="500.316" fill="#E6E6E6" width="37" height="26"/>
	<rect x="1373" y="500.316" fill="#E6E6E6" width="37" height="26"/>
</g>
<g>
	<g>
		<rect x="1019" y="146" fill="#4D4D4D" width="116" height="426"/>
		<polygon fill="#4D4D4D" points="1019,146 1135,146 1135,41.848 		"/>
	</g>
	<g>
		<rect x="1010" y="146" fill="#B3B3B3" width="116" height="425"/>
		<polygon fill="#B3B3B3" points="1010,147 1126,147 1126,42.5 		"/>
	</g>
	<rect x="1035" y="157" fill="#F2F2F2" width="11" height="35"/>
	<rect x="1066" y="157" fill="#E6E6E6" width="11" height="35"/>
	<rect x="1099" y="157" fill="#FFFF00" width="11" height="35"/>
	<rect x="1034" y="212" fill="#F2F2F2" width="11" height="34"/>
	<rect x="1065" y="212" fill="#E6E6E6" width="11" height="34"/>
	<rect x="1098" y="212" fill="#E6E6E6" width="11" height="34"/>
	<rect x="1034" y="267" fill="#FFFF00" width="11" height="35"/>
	<rect x="1065" y="267" fill="#FFFF00" width="11" height="35"/>
	<rect x="1098" y="267" fill="#E6E6E6" width="11" height="35"/>
	<polygon fill="#999999" points="1010,571 1126,571 1126,250.154 	"/>
	<rect x="1033" y="328" fill="#F2F2F2" width="11" height="34"/>
	<rect x="1064" y="328" fill="#E6E6E6" width="11" height="34"/>
	<rect x="1097" y="328" fill="#E6E6E6" width="11" height="34"/>
	<rect x="1030" y="379" fill="#FFFF00" width="11" height="35"/>
	<rect x="1061" y="379" fill="#E6E6E6" width="11" height="35"/>
	<rect x="1094" y="379" fill="#E6E6E6" width="11" height="35"/>
	<rect x="1030" y="435" fill="#F2F2F2" width="11" height="35"/>
	<rect x="1061" y="435" fill="#E6E6E6" width="11" height="35"/>
	<rect x="1094" y="435" fill="#FFFF00" width="11" height="35"/>
	<rect x="1029" y="488" fill="#F2F2F2" width="11" height="35"/>
	<rect x="1060" y="488" fill="#E6E6E6" width="11" height="35"/>
	<rect x="1093" y="488" fill="#E6E6E6" width="11" height="35"/>
</g>
<g>
	<g>
		<rect x="1795" y="56" fill="#333333" width="180" height="515"/>
	</g>
	<g>
		<rect x="1788" y="56" fill="#7A7A7A" width="180" height="516"/>
		<polygon fill="#666666" points="1794,572 1966,572 1966,199.22 		"/>
		<rect x="1813" y="80" fill="#E8E8E8" width="16" height="452"/>
		<rect x="1845" y="152" fill="#E8E8E8" width="16" height="380"/>
		<rect x="1876" y="80" fill="#E8E8E8" width="16" height="451"/>
		<rect x="1907" y="151" fill="#E8E8E8" width="16" height="380"/>
		<rect x="1938" y="80" fill="#E8E8E8" width="16" height="452"/>
		<polygon fill="#666666" points="1813,533 1968,533 1968,361.816 		"/>
	</g>
</g>
<g>
	<rect x="1510" y="280" fill="#333333" width="122" height="213"/>
	<rect x="1502" y="280" fill="#FF00FF" width="122" height="213"/>
	<polygon fill="#93278F" points="1502,493 1624,493 1624,362.312 	"/>
	<rect x="1521" y="300" fill="#666666" width="30" height="21"/>
	<rect x="1570" y="300" fill="#FFFF00" width="30" height="21"/>
	<rect x="1521" y="330" fill="#CCCCCC" width="30" height="21"/>
	<rect x="1570" y="330" fill="#CCCCCC" width="30" height="21"/>
	<rect x="1521" y="362" fill="#FFFF00" width="30" height="21"/>
	<rect x="1570" y="362" fill="#CCCCCC" width="30" height="21"/>
	<rect x="1521" y="396" fill="#CCCCCC" width="30" height="21"/>
	<rect x="1570" y="396" fill="#666666" width="30" height="21"/>
	<rect x="1520" y="430" fill="#FFFF00" width="30" height="21"/>
	<rect x="1569" y="430" fill="#F2F2F2" width="30" height="21"/>
</g>
<g>
	<rect x="582" y="239" fill="#333333" width="158" height="177"/>
	<rect x="524" y="411" fill="#333333" width="269" height="72"/>
	<rect x="451" y="481" fill="#333333" width="405" height="91"/>
	<rect x="650" y="101" fill="#333333" width="32" height="144"/>
	<rect x="574" y="239" fill="#00A99D" width="158" height="177"/>
	<rect x="516" y="411" fill="#00A99D" width="269" height="72"/>
	<rect x="443" y="481" fill="#00A99D" width="405" height="91"/>
	<rect x="642" y="101" fill="#00A99D" width="32" height="144"/>
	<polygon fill="#236D66" points="443,572 848,572 848,481.315 785,482.295 785,411.444 732,412.75 732,301.741 	"/>
	<rect x="596" y="256" fill="#F2F2F2" width="16" height="293"/>
	<rect x="629" y="256" fill="#F2F2F2" width="16" height="293"/>
	<rect x="664" y="257" fill="#F2F2F2" width="16" height="293"/>
	<rect x="696" y="256" fill="#F2F2F2" width="16" height="293"/>
	<rect x="745" y="430" fill="#F2F2F2" width="16" height="120"/>
	<rect x="541" y="428" fill="#F2F2F2" width="16" height="120"/>
</g>
<g>
	<rect x="907" y="399" fill="#333333" width="122" height="174"/>
	<rect x="899" y="399" fill="#2E3192" width="122" height="174"/>
	<polygon fill="#1B1464" points="899,573 1021,573 1021,466.296 	"/>
	<rect x="918" y="415" fill="#666666" width="30" height="17"/>
	<rect x="967" y="415" fill="#FFFF00" width="30" height="17"/>
	<rect x="918" y="440" fill="#CCCCCC" width="30" height="17"/>
	<rect x="967" y="440" fill="#CCCCCC" width="30" height="17"/>
	<rect x="918" y="466" fill="#FFFF00" width="30" height="17"/>
	<rect x="967" y="466" fill="#CCCCCC" width="30" height="17"/>
	<rect x="918" y="494" fill="#CCCCCC" width="30" height="17"/>
	<rect x="967" y="494" fill="#666666" width="30" height="17"/>
	<rect x="917" y="522" fill="#FFFF00" width="30" height="17"/>
	<rect x="966" y="522" fill="#F2F2F2" width="30" height="17"/>
</g>
<g>
	<g>
		<rect x="208" y="310" fill="#333333" width="140" height="262"/>
		<ellipse fill="#333333" cx="278" cy="310.883" rx="70" ry="42.445"/>
	</g>
	<g>
		<rect x="201" y="310" fill="#F7931E" width="140" height="262"/>
		<ellipse fill="#F7931E" cx="271" cy="310.883" rx="70" ry="42.445"/>
		<polygon fill="#D36E09" points="201,572 341,572 341,370.959 		"/>
		<ellipse fill="#E6E6E6" cx="311" cy="346.798" rx="17" ry="15.672"/>
		<ellipse fill="#FFFF00" cx="312" cy="395.119" rx="17" ry="15.672"/>
		<ellipse fill="#E6E6E6" cx="312" cy="445.4" rx="17" ry="15.672"/>
		<ellipse fill="#E6E6E6" cx="312" cy="491.11" rx="17" ry="15.672"/>
		<ellipse fill="#FFFF00" cx="312" cy="537.473" rx="17" ry="15.672"/>
	</g>
</g>
<g>
	<g>
		<rect x="1162" y="347" fill="#333333" width="78" height="113"/>
		<polygon fill="#333333" points="1162.561,348 1200.688,227.749 1238.812,348 		"/>
		<rect x="1117" y="460" fill="#333333" width="554" height="113"/>
	</g>
	<g>
		<rect x="1154" y="347" fill="#C7B299" width="78" height="113"/>
		<polygon fill="#42210B" points="1154.561,347 1192.688,226.748 1230.812,347 		"/>
		<rect x="1109" y="460" fill="#C7B299" width="554" height="112"/>
		<polygon fill="#998675" points="1109,572 1663,493.069 1663,572 		"/>
		<polygon fill="#998675" points="1154.748,459.604 1231,380.101 1231,459.767 		"/>
		<rect x="1187" y="360" fill="#E6E6E6" width="11" height="34"/>
		<rect x="1187" y="413" fill="#E6E6E6" width="11" height="35"/>
		<g>
			<rect x="1177" y="510" fill="#F2F2F2" width="43" height="39"/>
			<ellipse fill="#F2F2F2" cx="1198.5" cy="510.7" rx="21.5" ry="13.713"/>
		</g>
		<g>
			<rect x="1290" y="509" fill="#F2F2F2" width="43" height="39"/>
			<ellipse fill="#F2F2F2" cx="1311.5" cy="510.047" rx="21.5" ry="13.713"/>
		</g>
		<g>
			<rect x="1416" y="509" fill="#F2F2F2" width="43" height="39"/>
			<ellipse fill="#F2F2F2" cx="1437.5" cy="510.047" rx="21.5" ry="13.713"/>
		</g>
		<g>
			<rect x="1548" y="509" fill="#F2F2F2" width="43" height="39"/>
			<ellipse fill="#F2F2F2" cx="1569.5" cy="510.047" rx="21.5" ry="13.713"/>
		</g>
		<polygon fill="#2D1C11" points="1155,347 1231,347 1211.75,286.874 		"/>
	</g>
</g>
<g>
	<rect x="780" y="285" fill="#333333" width="161" height="288"/>
	<rect x="772" y="285" fill="#A67C52" width="161" height="288"/>
	<polygon fill="#754C24" points="772,573 933,573 933,400.298 	"/>
	<rect x="805" y="310" fill="#FFFF00" width="37" height="17"/>
	<rect x="864" y="310" fill="#666666" width="37" height="17"/>
	<rect x="804" y="339" fill="#E6E6E6" width="37" height="18"/>
	<rect x="863" y="339" fill="#E6E6E6" width="37" height="18"/>
	<rect x="804" y="370" fill="#E6E6E6" width="37" height="17"/>
	<rect x="863" y="370" fill="#666666" width="37" height="17"/>
	<rect x="803" y="400" fill="#666666" width="37" height="18"/>
	<rect x="862" y="400" fill="#FFFF00" width="37" height="18"/>
	<rect x="803" y="432" fill="#E6E6E6" width="37" height="17"/>
	<rect x="862" y="432" fill="#E6E6E6" width="37" height="17"/>
	<rect x="804" y="463" fill="#666666" width="37" height="18"/>
	<rect x="863" y="463" fill="#666666" width="37" height="18"/>
	<rect x="804" y="494" fill="#FFFF00" width="37" height="17"/>
	<rect x="863" y="494" fill="#E6E6E6" width="37" height="17"/>
	<rect x="804" y="526" fill="#E6E6E6" width="37" height="17"/>
	<rect x="863" y="526" fill="#E6E6E6" width="37" height="17"/>
</g>
<g>
	<rect x="343" y="397" fill="#333333" width="122" height="174"/>
	<rect x="335" y="397" fill="#FF00FF" width="122" height="174"/>
	<polygon fill="#93278F" points="335,571 457,571 457,464.337 	"/>
	<rect x="354" y="413" fill="#666666" width="30" height="17"/>
	<rect x="403" y="413" fill="#FFFF00" width="30" height="17"/>
	<rect x="354" y="438" fill="#CCCCCC" width="30" height="17"/>
	<rect x="403" y="438" fill="#CCCCCC" width="30" height="17"/>
	<rect x="354" y="464" fill="#FFFF00" width="30" height="17"/>
	<rect x="403" y="464" fill="#CCCCCC" width="30" height="17"/>
	<rect x="354" y="492" fill="#CCCCCC" width="30" height="17"/>
	<rect x="403" y="492" fill="#666666" width="30" height="17"/>
	<rect x="353" y="520" fill="#FFFF00" width="30" height="17"/>
	<rect x="402" y="520" fill="#F2F2F2" width="30" height="17"/>
</g>
<g>
	<g>
		<rect x="1659" y="309" fill="#333333" width="140" height="262"/>
		<ellipse fill="#333333" cx="1729" cy="310.229" rx="70" ry="42.445"/>
	</g>
	<g>
		<rect x="1652" y="309" fill="#D9E021" width="140" height="262"/>
		<ellipse fill="#D9E021" cx="1722" cy="310.229" rx="70" ry="42.445"/>
		<polygon fill="#A8A845" points="1652,571 1792,571 1792,370.306 		"/>
		<ellipse fill="#E6E6E6" cx="1762" cy="346.145" rx="17" ry="15.672"/>
		<ellipse fill="#FFFF00" cx="1763" cy="394.467" rx="17" ry="15.672"/>
		<ellipse fill="#E6E6E6" cx="1763" cy="444.747" rx="17" ry="15.672"/>
		<ellipse fill="#E6E6E6" cx="1763" cy="490.457" rx="17" ry="15.672"/>
		<ellipse fill="#FFFF00" cx="1763" cy="536.82" rx="17" ry="15.672"/>
	</g>
</g>
<g>
	<rect x="52" y="161" fill="#333333" width="161" height="415"/>
	<rect x="44" y="161" fill="#A67C52" width="161" height="415"/>
	<polygon fill="#754C24" points="44,576 205,576 205,326.767 	"/>
	<rect x="77" y="197" fill="#FFFF00" width="37" height="24"/>
	<rect x="136" y="197" fill="#666666" width="37" height="24"/>
	<rect x="76" y="238" fill="#E6E6E6" width="37" height="25"/>
	<rect x="135" y="238" fill="#E6E6E6" width="37" height="25"/>
	<rect x="76" y="283" fill="#E6E6E6" width="37" height="25"/>
	<rect x="135" y="283" fill="#666666" width="37" height="25"/>
	<rect x="75" y="327" fill="#666666" width="37" height="25"/>
	<rect x="134" y="327" fill="#FFFF00" width="37" height="25"/>
	<rect x="75" y="372" fill="#E6E6E6" width="37" height="24"/>
	<rect x="134" y="372" fill="#E6E6E6" width="37" height="24"/>
	<rect x="76" y="417" fill="#666666" width="37" height="25"/>
	<rect x="135" y="417" fill="#666666" width="37" height="25"/>
	<rect x="76" y="462" fill="#FFFF00" width="37" height="25"/>
	<rect x="135" y="462" fill="#E6E6E6" width="37" height="25"/>
	<rect x="76" y="507" fill="#E6E6E6" width="37" height="26"/>
	<rect x="135" y="507" fill="#E6E6E6" width="37" height="26"/>
</g>
</svg>
